<svg xmlns="http://www.w3.org/2000/svg" width="516" height="63" viewBox="0 0 516 63">
    <path fill="#9B8561" fill-rule="evenodd" d="M39.205 37.885L28.79 13.1 18.507 37.885h20.698zM.357 61v-1.626c2.315-.264 4.05-1.143 5.208-2.637 1.157-1.494 3.142-5.551 5.954-12.173L30.284.4h1.758l22.412 51.02c1.494 3.4 2.688 5.501 3.581 6.307.894.806 2.395 1.355 4.505 1.648V61H39.644v-1.626c2.637-.234 4.336-.52 5.098-.857.762-.337 1.143-1.164 1.143-2.483 0-.44-.147-1.216-.44-2.329a25.337 25.337 0 0 0-1.23-3.516l-3.736-8.657H16.925c-2.344 5.889-3.743 9.485-4.197 10.789-.454 1.304-.681 2.336-.681 3.098 0 1.523.615 2.578 1.845 3.164.762.352 2.198.615 4.307.791V61H.357zm104.72-32.827c4.775-1.963 7.163-5.654 7.163-11.074 0-5.215-2.14-8.775-6.416-10.68-2.286-1.024-5.318-1.537-9.097-1.537-2.549 0-4.109.183-4.68.55-.572.365-.857 1.222-.857 2.57v22.192c6.474-.234 11.103-.908 13.886-2.021zM74.314 59.374c3.457-.322 5.61-.996 6.46-2.021.85-1.026 1.274-3.414 1.274-7.164V11.21c0-3.164-.476-5.237-1.428-6.218-.952-.982-3.054-1.604-6.306-1.868v-1.67h24.917c5.185 0 9.507.66 12.964 1.978 6.562 2.49 9.843 7.075 9.843 13.755 0 4.482-1.457 7.924-4.372 10.327-2.915 2.402-6.878 3.984-11.887 4.746l18.545 22.807c1.142 1.407 2.285 2.432 3.427 3.077 1.143.644 2.608 1.054 4.395 1.23V61h-14.502L96.2 33.314l-5.01.22v17.71c0 3.34.505 5.457 1.516 6.35 1.01.894 3.215 1.487 6.614 1.78V61H74.315v-1.626zM139 1.454h50.845l.483 15.293h-2.153c-1.055-4.805-2.395-7.932-4.021-9.382-1.626-1.45-5.047-2.176-10.262-2.176h-5.01v46.055c0 3.486.543 5.647 1.627 6.482s3.457 1.384 7.119 1.648V61h-26.236v-1.626c3.809-.293 6.182-.923 7.12-1.89.937-.966 1.406-3.398 1.406-7.295v-45h-5.01c-4.98 0-8.372.718-10.173 2.154-1.802 1.435-3.157 4.57-4.065 9.404h-2.198L139 1.454zm63.498 57.92c3.31-.352 5.457-.945 6.438-1.78.982-.835 1.472-2.951 1.472-6.35V11.21c0-3.193-.483-5.28-1.45-6.262-.967-.982-3.12-1.59-6.46-1.824v-1.67h47.813l.307 12.92h-2.285c-.761-3.984-1.904-6.562-3.427-7.734-1.524-1.172-4.922-1.758-10.196-1.758h-12.217c-1.318 0-2.13.212-2.439.637-.307.425-.461 1.223-.461 2.395v20.083h13.843c3.838 0 6.284-.571 7.339-1.714 1.054-1.142 1.904-3.457 2.548-6.943h2.11v20.83h-2.11c-.673-3.486-1.538-5.794-2.592-6.921-1.055-1.128-3.487-1.692-7.295-1.692h-13.843v22.28c0 1.787.564 2.842 1.692 3.164 1.128.322 4.504.483 10.13.483 6.093 0 10.59-.666 13.49-2 2.9-1.332 5.508-4.562 7.823-9.69h2.505L251.146 61h-48.648v-1.626zm64.246 0c3.545-.38 5.75-1.033 6.614-1.956.864-.922 1.296-3.332 1.296-7.229V11.21c0-3.193-.483-5.28-1.45-6.262-.967-.982-3.12-1.59-6.46-1.824v-1.67h47.944l.308 12.92h-2.505c-.615-4.13-1.772-6.746-3.472-7.844-1.699-1.099-5.053-1.648-10.063-1.648H286.65c-1.201 0-1.97.205-2.307.615-.337.41-.505 1.216-.505 2.417v20.083h13.007c3.838 0 6.285-.571 7.34-1.714 1.054-1.142 1.904-3.457 2.548-6.943h2.11v20.83h-2.11c-.674-3.486-1.538-5.794-2.593-6.921-1.054-1.128-3.486-1.692-7.295-1.692H283.84v19.687c0 3.31.505 5.427 1.516 6.35 1.01.923 3.215 1.516 6.613 1.78V61h-25.224v-1.626zm91.843-21.49L348.172 13.1 337.89 37.885h20.698zM319.74 61v-1.626c2.315-.264 4.05-1.143 5.208-2.637 1.157-1.494 3.142-5.551 5.955-12.173L349.666.4h1.758l22.412 51.02c1.494 3.4 2.688 5.501 3.582 6.307.893.806 2.395 1.355 4.504 1.648V61h-22.895v-1.626c2.636-.234 4.336-.52 5.097-.857.762-.337 1.143-1.164 1.143-2.483 0-.44-.147-1.216-.44-2.329a25.338 25.338 0 0 0-1.23-3.516l-3.735-8.657h-23.555c-2.344 5.889-3.743 9.485-4.197 10.789-.454 1.304-.681 2.336-.681 3.098 0 1.523.615 2.578 1.846 3.164.761.352 2.197.615 4.306.791V61H319.74zM436.016 1.85c3.428.966 5.347 1.45 5.757 1.45.85 0 1.655-.235 2.417-.703.762-.47 1.29-1.201 1.582-2.198h1.89l.835 20.215h-2.066c-1.2-4.013-2.768-7.25-4.702-9.712-3.691-4.629-8.657-6.943-14.897-6.943-6.3 0-11.448 2.49-15.447 7.47-4 4.981-5.999 11.837-5.999 20.567 0 8.027 2.102 14.436 6.307 19.226 4.204 4.79 9.528 7.185 15.974 7.185 4.658 0 8.95-1.113 12.876-3.34 2.256-1.26 4.731-3.164 7.426-5.713l1.67 1.67c-1.992 2.52-4.467 4.732-7.426 6.636-5.04 3.223-10.503 4.834-16.392 4.834-9.668 0-17.344-3.09-23.027-9.272-5.245-5.713-7.867-12.847-7.867-21.402 0-8.76 2.769-16.113 8.306-22.06C409.063 3.52 416.651.4 425.997.4c3.252 0 6.592.483 10.02 1.45zm27.727-.396h50.845l.483 15.293h-2.153c-1.055-4.805-2.395-7.932-4.02-9.382-1.627-1.45-5.047-2.176-10.262-2.176h-5.01v46.055c0 3.486.542 5.647 1.626 6.482 1.084.835 3.457 1.384 7.12 1.648V61h-26.236v-1.626c3.809-.293 6.182-.923 7.12-1.89.937-.966 1.405-3.398 1.405-7.295v-45h-5.01c-4.98 0-8.371.718-10.173 2.154-1.802 1.435-3.157 4.57-4.065 9.404h-2.197l.527-15.293z"/>
</svg>
