<svg xmlns="http://www.w3.org/2000/svg" width="150" height="19" viewBox="0 0 150 19">
    <path fill="#383838" fill-rule="evenodd" d="M11.604 11.322l-3.01-7.16-2.97 7.16h5.98zM.38 18v-.47c.668-.076 1.17-.33 1.504-.761.335-.432.908-1.604 1.72-3.517L9.026.493h.508l6.475 14.74c.431.981.776 1.588 1.034 1.821.259.233.692.392 1.302.476V18H11.73v-.47c.762-.067 1.253-.15 1.473-.247.22-.098.33-.337.33-.718 0-.127-.042-.35-.127-.672a7.32 7.32 0 0 0-.355-1.016l-1.08-2.501H5.168c-.677 1.701-1.081 2.74-1.212 3.117-.132.376-.197.675-.197.895 0 .44.178.744.533.914.22.101.635.177 1.244.228V18H.381zm30.252-9.483c1.38-.567 2.07-1.634 2.07-3.2 0-1.506-.618-2.534-1.854-3.085-.66-.296-1.536-.444-2.628-.444-.736 0-1.187.053-1.352.159-.165.106-.248.353-.248.742v6.412c1.87-.068 3.208-.263 4.012-.584zm-8.887 9.013c1-.093 1.621-.287 1.867-.584.245-.296.368-.986.368-2.069V3.617c0-.915-.138-1.514-.413-1.797-.275-.284-.882-.464-1.822-.54V.798h7.199c1.498 0 2.746.19 3.745.571 1.896.72 2.843 2.044 2.843 3.974 0 1.295-.42 2.29-1.263 2.983-.842.694-1.987 1.151-3.434 1.371l5.358 6.59c.33.405.66.702.99.888.33.186.753.304 1.27.355V18h-4.19l-6.195-7.998-1.448.063v5.117c0 .964.146 1.576.438 1.834.292.258.93.43 1.911.514V18h-7.224v-.47zM40.433.798h14.689l.14 4.418h-.623c-.304-1.388-.692-2.292-1.161-2.71-.47-.42-1.458-.629-2.965-.629h-1.447v13.305c0 1.007.157 1.631.47 1.872.313.241.998.4 2.056.476V18h-7.579v-.47c1.1-.084 1.786-.266 2.057-.546.27-.279.406-.981.406-2.107v-13H45.03c-1.439 0-2.419.207-2.94.622-.52.415-.911 1.32-1.173 2.717h-.635l.152-4.418zM58.777 17.53c.957-.101 1.576-.273 1.86-.514.284-.241.425-.853.425-1.834V3.616c0-.922-.14-1.525-.419-1.809-.279-.283-.901-.459-1.866-.527V.798H72.59l.089 3.732h-.66c-.22-1.15-.55-1.896-.99-2.234-.441-.339-1.423-.508-2.946-.508h-3.53c-.38 0-.615.061-.704.184-.089.123-.133.354-.133.692v5.802h3.999c1.108 0 1.815-.165 2.12-.495.304-.33.55-.999.736-2.006h.61v6.017h-.61c-.195-1.007-.444-1.673-.749-2-.305-.325-1.007-.488-2.107-.488h-4v6.437c0 .516.164.82.49.914.325.093 1.3.14 2.926.14 1.76 0 3.06-.193 3.897-.578.838-.385 1.591-1.318 2.26-2.8h.724L72.83 18H58.777v-.47zm18.56 0c1.024-.11 1.661-.298 1.91-.565.25-.266.375-.962.375-2.088V3.617c0-.923-.14-1.526-.419-1.81-.28-.283-.901-.459-1.866-.527V.798h13.85l.09 3.732h-.724c-.178-1.193-.512-1.948-1.003-2.266-.491-.317-1.46-.476-2.907-.476h-3.555c-.347 0-.57.06-.667.178-.097.118-.146.351-.146.698v5.802h3.758c1.109 0 1.816-.165 2.12-.495.305-.33.55-.999.737-2.006h.61v6.017h-.61c-.195-1.007-.445-1.673-.75-2-.304-.325-1.006-.488-2.107-.488h-3.758v5.688c0 .956.146 1.568.438 1.834.292.267.93.438 1.911.514V18h-7.287v-.47zm26.532-6.208l-3.008-7.16-2.971 7.16h5.98zM92.647 18v-.47c.668-.076 1.17-.33 1.504-.761.335-.432.908-1.604 1.72-3.517L101.292.493h.508l6.475 14.74c.431.981.776 1.588 1.034 1.821.259.233.692.392 1.302.476V18h-6.615v-.47c.762-.067 1.253-.15 1.473-.247.22-.098.33-.337.33-.718 0-.127-.042-.35-.127-.672a7.32 7.32 0 0 0-.355-1.016l-1.08-2.501h-6.804c-.677 1.701-1.081 2.74-1.212 3.117-.132.376-.197.675-.197.895 0 .44.178.744.533.914.22.101.635.177 1.244.228V18h-5.154zM126.237.912c.991.28 1.546.42 1.664.42.245 0 .478-.069.698-.204.22-.135.373-.347.457-.635h.546l.241 5.84h-.596c-.347-1.16-.8-2.095-1.359-2.806-1.066-1.337-2.5-2.006-4.303-2.006-1.82 0-3.308.72-4.463 2.159-1.155 1.438-1.733 3.419-1.733 5.941 0 2.32.608 4.17 1.822 5.554 1.215 1.384 2.753 2.076 4.615 2.076a7.41 7.41 0 0 0 3.72-.965c.651-.364 1.366-.914 2.145-1.65l.482.482a8.715 8.715 0 0 1-2.145 1.917c-1.456.931-3.034 1.397-4.735 1.397-2.793 0-5.01-.893-6.653-2.68-1.515-1.65-2.272-3.71-2.272-6.182 0-2.53.8-4.655 2.4-6.373 1.683-1.802 3.876-2.704 6.575-2.704.94 0 1.905.14 2.895.42zm8.011-.114h14.688l.14 4.418h-.622c-.305-1.388-.692-2.292-1.162-2.71-.47-.42-1.457-.629-2.964-.629h-1.447v13.305c0 1.007.156 1.631.47 1.872.313.241.998.4 2.056.476V18h-7.579v-.47c1.1-.084 1.786-.266 2.057-.546.27-.279.406-.981.406-2.107v-13h-1.447c-1.44 0-2.419.207-2.94.622-.52.415-.911 1.32-1.174 2.717h-.634l.152-4.418z"/>
</svg>
