<?xml version="1.0" encoding="UTF-8"?>
<svg width="30px" height="31px" viewBox="0 0 30 31" version="1.1" xmlns="http://www.w3.org/2000/svg" xmlns:xlink="http://www.w3.org/1999/xlink">
    <!-- Generator: Sketch 44.1 (41455) - http://www.bohemiancoding.com/sketch -->
    <title>searchShape</title>
    <desc>Created with Sketch.</desc>
    <defs></defs>
    <g id="Page-1" stroke="none" stroke-width="1" fill="none" fill-rule="evenodd" opacity="0.65">
        <g id="MainPage" transform="translate(-827.000000, -560.000000)" fill-rule="nonzero" fill="#4A4A4A">
            <g id="searchShape" transform="translate(827.000000, 560.000000)">
                <g id="Group" transform="translate(0.000000, 0.253974)">
                    <path d="M11.8436495,0.145833122 C5.31280737,0.145833122 0.00154421053,5.50352796 0.00154421053,12.0915345 C0.00154421053,18.6794534 5.31280737,24.0372199 11.8436495,24.0372199 C14.8245047,24.0372199 17.5436889,22.9155186 19.6273863,21.0756814 L28.6569916,30.1718154 C28.9653205,30.4827222 29.45886,30.4828018 29.7671495,30.1718154 C30.0755179,29.8607891 30.0755968,29.3628127 29.7671495,29.0519059 L20.7498995,19.9557719 C22.5773732,17.85301 23.6857547,15.1017557 23.6857547,12.0915345 C23.6857547,5.50352398 18.3744521,0.145833122 11.8436495,0.145833122 L11.8436495,0.145833122 Z M11.8436495,1.7385933 C17.52111,1.7385933 22.1068074,6.36432326 22.1068074,12.0915345 C22.1068074,17.8186462 17.52111,22.4444597 11.8436495,22.4444597 C6.16614947,22.4444597 1.58049158,17.8186462 1.58049158,12.0915345 C1.58049158,6.36431928 6.16614947,1.7385933 11.8436495,1.7385933 Z" id="Shape"></path>
                </g>
            </g>
        </g>
    </g>
</svg>